<svg width="224" height="69" viewBox="0 0 224 69" fill="none" xmlns="http://www.w3.org/2000/svg">
    <path
        d="M25.2344 57.8281L31.6562 57.2656H33.3906C34.2344 57.2656 34.9219 57.5312 35.4531 58.0625C36.0156 58.5938 36.2969 59.2812 36.2969 60.125V65.1406C36.2969 65.8281 36.0156 66.4531 35.4531 67.0156C34.9219 67.5469 34.2344 67.875 33.3906 68C30.2031 68.625 26.0469 68.9375 20.9219 68.9375C7.48438 68.9375 0.765625 61.9062 0.765625 47.8438V3.6875C0.765625 2.84375 1.03125 2.15625 1.5625 1.625C2.125 1.0625 2.8125 0.78125 3.625 0.78125H14.125C14.9375 0.78125 15.6094 1.0625 16.1406 1.625C16.7031 2.15625 16.9844 2.84375 16.9844 3.6875V19.3438H30.0625C30.875 19.3438 31.5469 19.6094 32.0781 20.1406C32.6406 20.6719 32.9219 21.3594 32.9219 22.2031V27.7812C32.9219 28.625 32.6406 29.3125 32.0781 29.8438C31.5469 30.375 30.875 30.6406 30.0625 30.6406H16.9844V47.8438C16.9844 51.0312 17.7344 53.5 19.2344 55.25C20.7344 56.9688 22.7344 57.8281 25.2344 57.8281ZM47.9219 62.1875C43.0469 57.6875 40.6094 51.0625 40.6094 42.3125C40.6094 33.5312 43.0469 26.9062 47.9219 22.4375C52.7969 17.9375 59.7969 15.6875 68.9219 15.6875C78.0781 15.6875 85.0938 17.9375 89.9688 22.4375C94.8438 26.9062 97.2812 33.5312 97.2812 42.3125C97.2812 51.0625 94.8438 57.6875 89.9688 62.1875C85.0938 66.6875 78.0781 68.9375 68.9219 68.9375C59.7969 68.9375 52.7969 66.6875 47.9219 62.1875ZM59.7812 30.125C57.8438 32.6562 56.875 36.7031 56.875 42.2656C56.875 47.8281 57.8438 51.8906 59.7812 54.4531C61.7188 57.0156 64.7656 58.2969 68.9219 58.2969C73.1094 58.2969 76.1719 57.0156 78.1094 54.4531C80.0781 51.8906 81.0625 47.8281 81.0625 42.2656C81.0625 36.7031 80.0781 32.6562 78.1094 30.125C76.1719 27.5938 73.1094 26.3281 68.9219 26.3281C64.7656 26.3281 61.7188 27.5938 59.7812 30.125Z"
        fill="white" />
    <path
        d="M126.016 68.9375C119.484 68.9375 114.016 66.6406 109.609 62.0469C105.234 57.4531 103.047 50.875 103.047 42.3125C103.047 33.7188 105.312 27.1406 109.844 22.5781C114.406 17.9844 120.531 15.6875 128.219 15.6875C132.188 15.6875 136.703 16.4844 141.766 18.0781V3.6875C141.766 2.84375 142.031 2.15625 142.562 1.625C143.125 1.0625 143.812 0.78125 144.625 0.78125H155.078C155.922 0.78125 156.609 1.0625 157.141 1.625C157.703 2.15625 157.984 2.84375 157.984 3.6875V65.1406C157.984 65.9531 157.703 66.6406 157.141 67.2031C156.609 67.7344 155.922 68 155.078 68H146.078C145.234 68 144.547 67.7344 144.016 67.2031C143.484 66.6406 143.219 65.9531 143.219 65.1406V63.6875C138.281 67.1875 132.547 68.9375 126.016 68.9375ZM131.594 27.0312C127.281 27.0312 124.234 28.25 122.453 30.6875C120.672 33.0938 119.781 36.9688 119.781 42.3125C119.781 47.6562 120.625 51.5469 122.312 53.9844C124 56.4219 126.531 57.6406 129.906 57.6406C133.312 57.6406 137.266 56.2344 141.766 53.4219V28.9062C137.734 27.6562 134.344 27.0312 131.594 27.0312ZM173.922 62.1875C169.047 57.6875 166.609 51.0625 166.609 42.3125C166.609 33.5312 169.047 26.9062 173.922 22.4375C178.797 17.9375 185.797 15.6875 194.922 15.6875C204.078 15.6875 211.094 17.9375 215.969 22.4375C220.844 26.9062 223.281 33.5312 223.281 42.3125C223.281 51.0625 220.844 57.6875 215.969 62.1875C211.094 66.6875 204.078 68.9375 194.922 68.9375C185.797 68.9375 178.797 66.6875 173.922 62.1875ZM185.781 30.125C183.844 32.6562 182.875 36.7031 182.875 42.2656C182.875 47.8281 183.844 51.8906 185.781 54.4531C187.719 57.0156 190.766 58.2969 194.922 58.2969C199.109 58.2969 202.172 57.0156 204.109 54.4531C206.078 51.8906 207.062 47.8281 207.062 42.2656C207.062 36.7031 206.078 32.6562 204.109 30.125C202.172 27.5938 199.109 26.3281 194.922 26.3281C190.766 26.3281 187.719 27.5938 185.781 30.125Z"
        fill="url(#paint0_linear_168_2)" />
    <defs>
        <linearGradient id="paint0_linear_168_2" x1="-5" y1="-28" x2="235.409" y2="74.2253"
            gradientUnits="userSpaceOnUse">
            <stop stop-color="#8665F5" />
            <stop offset="0.601243" stop-color="#7851F6" />
            <stop offset="1" stop-color="#6E44F7" />
        </linearGradient>
    </defs>
</svg>